<svg width="139" height="36" viewBox="0 0 139 36" fill="none" xmlns="http://www.w3.org/2000/svg">
<path d="M14.0284 22.4741C14.8354 21.2463 14.7544 19.8446 14.6823 19.299C14.5369 17.8986 13.9616 17.192 13.9616 17.192C12.5703 15.1135 9.46204 14.7582 6.8313 14.3322C6.31004 14.2472 5.81967 14.1648 5.36534 14.0736C3.71148 13.6719 3.02162 12.9937 2.7539 12.3888C2.7539 12.3888 2.7539 12.3874 2.7539 12.3862C2.57501 11.9692 2.5956 11.5393 2.66768 11.1956C2.7346 10.9292 2.83757 10.6332 2.99844 10.3398C3.45277 9.50446 4.27521 9.00122 5.1504 8.71808C5.33832 8.66401 5.51207 8.62926 5.51207 8.62926C5.66522 8.60224 5.77848 8.47096 5.77848 8.3178C5.77848 8.11444 5.58801 7.96772 5.38593 8.00891C2.97657 8.50442 1.90961 9.51218 1.90961 9.51218H1.91088C1.5814 9.77216 1.29053 10.0579 1.04213 10.3616C1.04213 10.3616 0.199107 11.1339 0.0395122 12.6681C0.0395122 12.6681 -0.175426 13.9757 0.397314 15.3477C0.466814 15.5188 0.545324 15.6811 0.632844 15.833C1.94307 18.1161 5.18129 18.4816 7.90598 18.9231C8.42724 19.0081 8.9176 19.0905 9.37193 19.1819C11.0258 19.5834 11.7157 20.2616 11.9834 20.8665C11.9834 20.8665 11.9834 20.8679 11.9834 20.8691C12.1623 21.2861 12.1417 21.716 12.0695 22.0597C12.0027 22.326 11.8997 22.6221 11.7388 22.9155C11.2845 23.7509 10.4621 24.2541 9.58687 24.5373C9.39896 24.5913 9.22522 24.6261 9.22522 24.6261C9.07206 24.6531 8.95879 24.7843 8.95879 24.9375C8.95879 25.1409 9.14928 25.2876 9.35135 25.2464C10.2999 25.0521 11.04 24.7767 11.5883 24.5167C12.5883 24.0971 13.3232 23.3519 13.7119 22.8859C13.8148 22.7675 13.9075 22.6465 13.9912 22.5243C14.0143 22.4908 14.0259 22.4728 14.0259 22.4728L14.0284 22.4741Z" fill="#162560"/>
<path d="M9.18258 8.56672C9.89303 8.68254 10.6035 8.8962 11.2303 9.26044C12.9562 10.3055 13.2664 12.0726 13.2973 12.2863L13.3231 12.4677H13.9073V8.04674H13.2883L13.2587 8.22307C13.1892 8.63493 13.1055 8.84086 12.9819 8.91165C12.7387 9.05193 12.0707 8.81382 11.265 8.49464C11.265 8.49464 11.1685 8.45088 10.9947 8.38782C10.9729 8.3788 10.9536 8.37108 10.9317 8.36335C10.9201 8.3582 10.9111 8.3582 10.9008 8.35435C10.5623 8.23465 10.0024 8.0609 9.28683 7.93477C9.09248 7.90002 8.91229 8.04803 8.91229 8.24366V8.25653C8.91229 8.41227 9.02813 8.54097 9.18258 8.56672Z" fill="#162560"/>
<path d="M5.66268 24.5915C4.87371 24.4462 4.26751 24.2119 3.83506 23.9969C1.9714 23.0149 1.02799 21.2813 0.786029 20.0045L0.753852 19.832H0.0575562L0.0987419 25.2119H0.739695L0.782168 25.0562C0.882557 24.6919 1.03829 24.4564 1.25967 24.3367C1.7732 24.0587 2.66899 24.3624 3.80417 24.7473C4.40265 24.9699 4.98826 25.1296 5.54169 25.2364C5.74762 25.2763 5.93939 25.1218 5.93939 24.9147C5.93939 24.755 5.82098 24.6212 5.66268 24.5928V24.5915Z" fill="#162560"/>
<path d="M43.3982 19.9213V8.05078H37.2281V8.5965L37.3478 8.65441C38.4984 9.21042 39.2642 10.2195 39.2642 13.3341V19.9213C39.2642 23.036 38.4984 24.0437 37.3478 24.601L37.2281 24.659V25.2034H45.4344V24.659L45.3146 24.601C44.164 24.045 43.3982 23.036 43.3982 19.9213Z" fill="#162560"/>
<path d="M51.2357 8.88563C50.2036 8.05291 48.6102 7.72471 47.0708 8.02587L46.9576 8.04905C46.8688 8.06835 46.5998 8.12627 46.5998 8.37853C46.5998 8.46991 46.6372 8.551 46.7053 8.60634C46.7916 8.67713 46.9126 8.69514 47.0734 8.66168C47.8508 8.50209 48.4428 8.838 48.5728 9.14176C48.6205 9.25501 48.5934 9.33996 48.4853 9.41332C47.7633 9.8921 47.3322 10.6952 47.3322 11.5614C47.3322 12.9823 48.4879 14.1381 49.9088 14.1381C51.3297 14.1381 52.4855 12.9823 52.4855 11.5614C52.4855 10.4687 52.053 9.54331 51.2371 8.88434L51.2357 8.88563Z" fill="#162560"/>
<path d="M91.4504 19.9214V13.4938C91.4504 11.7911 90.9305 10.4204 89.9033 9.42161C88.7707 8.31988 87.2829 7.71883 85.3265 7.77289C85.1812 7.77804 85.0358 7.78575 84.8954 7.79863C84.5364 7.82952 84.5119 8.08822 84.5132 8.17445C84.5274 8.28385 84.5982 8.4679 84.9173 8.4782C87.0255 8.54512 87.3164 10.9287 87.3164 13.4951V19.9226C87.3164 23.0373 86.5506 24.0451 85.3999 24.6024L85.2803 24.6603V25.2047H93.4865V24.6603L93.3669 24.6024C92.2162 24.0464 91.4504 23.0373 91.4504 19.9226V19.9214Z" fill="#162560"/>
<path d="M80.155 19.9213V8.05078H73.985V8.5965L74.1046 8.65441C75.2552 9.21042 76.0211 10.2195 76.0211 13.3341V19.9213C76.0211 23.036 75.2552 24.0437 74.1046 24.601L73.985 24.659V25.2034H82.1912V24.659L82.0715 24.601C80.9209 24.045 80.155 23.036 80.155 19.9213Z" fill="#162560"/>
<path d="M102.881 19.9213V8.05078H96.7104V8.5965L96.8302 8.65441C97.9808 9.21042 98.7466 10.2195 98.7466 13.3341V19.9213C98.7466 23.036 97.9808 24.0437 96.8302 24.601L96.7104 24.659V25.2034H104.917V24.659L104.797 24.601C103.646 24.045 102.881 23.036 102.881 19.9213Z" fill="#162560"/>
<path d="M113.41 1.4043L113.001 2.43522C112.324 4.14058 110.503 5.19724 109.206 5.19724H108.993V19.5222C108.993 23.2919 110.919 25.2045 114.716 25.2045C115.124 25.2045 115.505 25.1646 115.854 25.0861C116.129 25.023 116.219 24.8402 116.186 24.6871C116.129 24.4232 115.861 24.4438 115.723 24.4541C115.683 24.4567 115.641 24.4606 115.593 24.4606C114.125 24.4606 113.41 22.8453 113.41 19.5222V8.67486H116.197V8.05064H113.41V1.4043Z" fill="#162560"/>
<path d="M134.145 8.05078V8.58234L134.247 8.64411C135.049 9.13191 135.631 9.73682 134.616 12.199L133.307 15.0459L133.949 15.3419L135.625 11.6983C136.803 9.49743 137.669 9.14607 138.868 8.65956L139 8.6055V8.05078H134.144H134.145Z" fill="#162560"/>
<path d="M128.08 13.3844L127.941 13.0999C126.431 9.99424 127.053 9.08687 127.763 8.64283L127.863 8.58105V8.05078H118.855V8.6055L118.987 8.65956C120.361 9.21686 121.498 10.3919 122.675 12.4692L128.937 25.0862L128.997 25.2046H129.428L131.6 20.4773L128.054 13.3869H128.082L128.08 13.3844Z" fill="#162560"/>
<path d="M126.482 31.5165C126.373 31.5423 126.285 31.6259 126.213 31.7739C125.864 32.487 125.237 32.7495 124.915 32.6671C124.797 32.6363 124.747 32.5616 124.754 32.4316C124.816 31.5668 124.445 30.7353 123.76 30.205C123.217 29.7841 122.54 29.6027 121.857 29.6889C121.174 29.7765 120.566 30.124 120.146 30.6684C119.727 31.2115 119.542 31.8871 119.63 32.5706C119.718 33.254 120.065 33.8615 120.607 34.2824C121.247 34.7753 121.956 35.0277 122.696 35.0277C122.957 35.0277 123.223 34.9954 123.49 34.9324C124.782 34.6248 126.017 33.5629 126.72 32.1575L126.769 32.0571C126.808 31.976 126.926 31.7276 126.727 31.5731C126.654 31.5179 126.567 31.4985 126.482 31.5165Z" fill="#162560"/>
<path d="M102.828 1.48766C102.822 1.47865 102.817 1.46836 102.81 1.45935C102.437 0.880176 101.862 0.481189 101.19 0.335752C100.123 0.105369 99.1269 0.330604 98.3095 0.990863C97.2774 1.82488 96.6196 3.31142 96.5901 4.88034V4.99746C96.5888 5.08755 96.5888 5.36299 96.8359 5.41575C96.926 5.43506 97.0122 5.41575 97.0805 5.36169C97.168 5.29219 97.2104 5.17765 97.213 5.01419C97.2208 4.22008 97.675 3.7117 97.9994 3.64991C98.1204 3.62675 98.1976 3.6718 98.2465 3.79278C98.5619 4.59847 99.2569 5.1918 100.102 5.37457C100.774 5.52001 101.463 5.39388 102.042 5.02063C102.621 4.64738 103.02 4.07207 103.166 3.40023C103.309 2.73996 103.189 2.06169 102.83 1.48895L102.828 1.48766Z" fill="#162560"/>
<path d="M66.4666 23.7328C66.3648 23.68 66.2361 23.6762 66.1138 23.7238L66.0547 23.7469C65.3313 24.0133 64.626 24.1369 63.8344 24.1369C60.353 24.1369 58.3567 21.3941 58.3567 16.6115V16.2524C58.3567 12.6654 58.7275 10.0475 60.5384 8.93423L60.5628 8.91878C60.7391 8.80938 61.0069 8.64464 60.9064 8.32931C60.779 7.9329 60.3569 8.05517 60.1973 8.1015C56.4545 9.18006 53.9396 12.5354 53.9396 16.4506C53.9396 18.8651 54.8534 21.0891 56.5111 22.7148C58.1766 24.3467 60.4264 25.209 63.0159 25.209C63.0957 25.209 63.1768 25.209 63.2579 25.2064C64.3416 25.1846 65.4021 24.9143 66.4098 24.4033C66.6479 24.2823 66.6917 24.0777 66.6326 23.9374C66.6093 23.8485 66.5502 23.7753 66.4666 23.7315V23.7328Z" fill="#162560"/>
<path d="M65.4908 8.1223C65.3068 8.06953 64.9232 7.96142 64.7727 8.31407C64.7147 8.4505 64.6813 8.72206 65.1098 9.01294C66.8525 10.1957 67.2232 12.4249 67.2438 15.6348H62.0712V16.2719L62.084 16.3337L62.1444 16.3427H70.9917C71.2388 16.3427 71.3791 16.2436 71.4538 16.1599C71.5194 16.0865 71.594 15.9565 71.5863 15.7507L71.5889 15.7455L71.5811 15.6824C71.1281 11.7981 68.9659 9.11333 65.4921 8.12101L65.4908 8.1223Z" fill="#162560"/>
<path d="M30.547 23.7328C30.4454 23.68 30.3166 23.6762 30.1944 23.7238L30.1351 23.7469C29.4118 24.0133 28.7065 24.1369 27.915 24.1369C24.4334 24.1369 22.4373 21.3941 22.4373 16.6115V16.2524C22.4373 12.6654 22.8079 10.0475 24.6188 8.93423L24.6433 8.91878C24.8196 8.80938 25.0873 8.64464 24.9869 8.32931C24.8594 7.9329 24.4373 8.05517 24.2778 8.1015C20.535 9.18006 18.0201 12.5354 18.0201 16.4506C18.0201 18.8651 18.9339 21.0891 20.5916 22.7148C22.257 24.3467 24.5068 25.209 27.0963 25.209C27.1762 25.209 27.2572 25.209 27.3383 25.2064C28.4221 25.1846 29.4826 24.9143 30.4904 24.4033C30.7285 24.2823 30.7722 24.0777 30.713 23.9374C30.6899 23.8485 30.6306 23.7753 30.547 23.7315V23.7328Z" fill="#162560"/>
<path d="M28.9977 8.1223C28.8137 8.06953 28.4301 7.96142 28.2796 8.31407C28.2216 8.4505 28.1882 8.72206 28.6167 9.01294C30.3595 10.1957 30.7301 12.4249 30.7507 15.6348H25.5652V16.2719L25.578 16.3337L25.6385 16.3427H34.4986C34.7456 16.3427 34.886 16.2436 34.9606 16.1599C35.0263 16.0865 35.1009 15.9565 35.0933 15.7507L35.0958 15.7455L35.088 15.6824C34.635 11.7981 32.4727 9.11333 28.999 8.12101L28.9977 8.1223Z" fill="#162560"/>
</svg>
